# xmcd
#
# Track frame offsets: 
#        150
#        19416
#        36538
#        59317
#        78080
#        91912
#        114503
#        136387
#        159726
#        174731
#        211763
#        226695
#        249484
#        274944
#        291876
#        312692
#        330191
#
# Disc length: 4760 seconds
#
# Revision: 0
# Processed by: cddbd v1.5.2PL0 Copyright (c) Steve Scherf et al.
# Submitted via: ExactAudioCopyFreeDBPlugin 1.0
#
DISCID=ed129611
DTITLE=Various Artist - Real Funky Blues
DYEAR=2016
DGENRE=Blues
TTITLE0=Eddie Blue Lester - My Thang
TTITLE1=Carol Fran and Clarence Hollimon - Rock Bottom
TTITLE2=Buddy Guy - Me and My Guitar
TTITLE3=Sweet Betty - Bad Company
TTITLE4=Eddie C. Campbell - My Girl
TTITLE5=Johnny Rawls - Back In Your Arms
TTITLE6=Mick Martin and The Blues Rockers - Been Burned
TTITLE7=Hubert Sumlin - All I Can Do
TTITLE8=Johnny Mars - Horses and Places
TTITLE9=Lucky Lopex Evans - Hail To The King
TTITLE10=Andrew Jr. Boy Jones - You're A Dog
TTITLE11=Tamara Peterson and Lucky Peterson - Free
TTITLE12=U. P. Wilson - Take It Easy
TTITLE13=Johnny Rawls - That's Why I'm Goin' Away
TTITLE14=Carey Bell - 85%
TTITLE15=Alanda Williams - Kid Dynamite
TTITLE16=Buddy Guy - Mello Down
EXTD=
EXTT0=
EXTT1=
EXTT2=
EXTT3=
EXTT4=
EXTT5=
EXTT6=
EXTT7=
EXTT8=
EXTT9=
EXTT10=
EXTT11=
EXTT12=
EXTT13=
EXTT14=
EXTT15=
EXTT16=
PLAYORDER=
